<svg width="28" height="33" viewBox="0 0 28 33" fill="none" xmlns="http://www.w3.org/2000/svg">
  <g class="facebook--desktop">
    <path
      d="M21.0001 2.74976H17.5001C15.953 2.74976 14.4693 3.45999 13.3753 4.72423C12.2813 5.98846 11.6667 7.70313 11.6667 9.49103V13.5358H8.16675V18.9288H11.6667V29.7148H16.3334V18.9288H19.8334L21.0001 13.5358H16.3334V9.49103C16.3334 9.13345 16.4563 8.79051 16.6751 8.53767C16.8939 8.28482 17.1907 8.14277 17.5001 8.14277H21.0001V2.74976Z"
      stroke="#666666" stroke-width="1.1" stroke-linecap="round" stroke-linejoin="round" />
  </g>
  <g class="facebook--tablet">
    <path
      d="M21 2.75H17.5C15.9529 2.75 14.4692 3.46024 13.3752 4.72447C12.2813 5.98871 11.6667 7.70337 11.6667 9.49127V13.536H8.16669V18.929H11.6667V29.7151H16.3334V18.929H19.8334L21 13.536H16.3334V9.49127C16.3334 9.13369 16.4563 8.79076 16.6751 8.53791C16.8939 8.28506 17.1906 8.14302 17.5 8.14302H21V2.75Z"
      stroke="#666666" stroke-width="1.1" stroke-linecap="round" stroke-linejoin="round" />
  </g>
  <g class="facebook--mobile">
    <path
      d="M16.5 1.83325H13.75C12.5344 1.83325 11.3686 2.30674 10.5091 3.14957C9.64956 3.99239 9.16667 5.1355 9.16667 6.32743V9.02394H6.41667V12.6193H9.16667V19.81H12.8333V12.6193H15.5833L16.5 9.02394H12.8333V6.32743C12.8333 6.08905 12.9299 5.86042 13.1018 5.69186C13.2737 5.52329 13.5069 5.4286 13.75 5.4286H16.5V1.83325Z"
      stroke="#666666" stroke-width="1.1" stroke-linecap="round" stroke-linejoin="round" />
  </g>
</svg>
