<svg width="23" height="23" viewBox="0 0 23 23" fill="none" xmlns="http://www.w3.org/2000/svg">
  <g class="instagram--desktop">
    <path
      d="M11.4775 0.0898438C13.3942 0.0898438 14.959 0.112305 16.1719 0.157227C17.2051 0.202148 18.126 0.381836 18.9346 0.696289C19.7132 0.995768 20.387 1.43001 20.9561 1.99902C21.5251 2.56803 21.9593 3.24186 22.2588 4.02051C22.5732 4.8291 22.7529 5.75 22.7979 6.7832C22.8428 7.99609 22.8652 9.56087 22.8652 11.4775C22.8652 13.3942 22.8428 14.959 22.7979 16.1719C22.7529 17.2051 22.5732 18.126 22.2588 18.9346C21.9593 19.7132 21.5251 20.387 20.9561 20.9561C20.387 21.5251 19.7132 21.9593 18.9346 22.2588C18.126 22.5732 17.2051 22.7529 16.1719 22.7978C14.959 22.8428 13.3942 22.8652 11.4775 22.8652C9.56087 22.8652 7.99609 22.8428 6.7832 22.7978C5.75 22.7529 4.8291 22.5732 4.02051 22.2588C3.24186 21.9593 2.56803 21.5251 1.99902 20.9561C1.43001 20.387 0.995768 19.7132 0.696289 18.9346C0.381836 18.126 0.202148 17.2051 0.157227 16.1719C0.112305 14.959 0.0898438 13.3942 0.0898438 11.4775C0.0898438 9.56087 0.112305 7.99609 0.157227 6.7832C0.202148 5.75 0.381836 4.8291 0.696289 4.02051C0.995768 3.24186 1.43001 2.56803 1.99902 1.99902C2.56803 1.43001 3.24186 0.995768 4.02051 0.696289C4.8291 0.381836 5.75 0.202148 6.7832 0.157227C7.99609 0.112305 9.56087 0.0898438 11.4775 0.0898438ZM11.4775 1.57227C9.486 1.57227 7.86133 1.59473 6.60352 1.63965C5.79492 1.6696 5.04622 1.81185 4.35742 2.06641C3.2793 2.51562 2.51562 3.2793 2.06641 4.35742C1.81185 5.04622 1.6696 5.79492 1.63965 6.60352C1.59473 7.86133 1.57227 9.486 1.57227 11.4775C1.57227 13.4691 1.59473 15.0937 1.63965 16.3516C1.6696 17.1602 1.81185 17.9089 2.06641 18.5977C2.51562 19.6758 3.2793 20.4395 4.35742 20.8887C5.04622 21.1432 5.79492 21.2855 6.60352 21.3154C7.86133 21.3603 9.486 21.3828 11.4775 21.3828C13.4691 21.3828 15.0938 21.3603 16.3516 21.3154C17.1602 21.2855 17.9089 21.1432 18.5977 20.8887C19.6758 20.4395 20.4395 19.6758 20.8887 18.5977C21.1432 17.9089 21.2855 17.1602 21.3154 16.3516C21.3604 15.0937 21.3828 13.4691 21.3828 11.4775C21.3828 9.486 21.3604 7.86133 21.3154 6.60352C21.2855 5.79492 21.1432 5.04622 20.8887 4.35742C20.4395 3.2793 19.6758 2.51562 18.5977 2.06641C17.9089 1.81185 17.1602 1.6696 16.3516 1.63965C15.0938 1.59473 13.4691 1.57227 11.4775 1.57227ZM11.4775 16.0371C12.7354 16.0371 13.8097 15.5916 14.7007 14.7007C15.5916 13.8097 16.0371 12.7354 16.0371 11.4775C16.0371 10.2197 15.5916 9.14534 14.7007 8.25439C13.8097 7.36344 12.7354 6.91797 11.4775 6.91797C10.2197 6.91797 9.14534 7.36344 8.25439 8.25439C7.36344 9.14534 6.91797 10.2197 6.91797 11.4775C6.91797 12.7354 7.36344 13.8097 8.25439 14.7007C9.14534 15.5916 10.2197 16.0371 11.4775 16.0371ZM11.4775 5.63769C13.0947 5.63769 14.4723 6.20671 15.6104 7.34473C16.7484 8.48275 17.3174 9.86035 17.3174 11.4775C17.3174 13.0947 16.7484 14.4723 15.6104 15.6104C14.4723 16.7484 13.0947 17.3174 11.4775 17.3174C9.86035 17.3174 8.48275 16.7484 7.34473 15.6104C6.20671 14.4723 5.6377 13.0947 5.6377 11.4775C5.6377 9.86035 6.20671 8.48275 7.34473 7.34473C8.48275 6.20671 9.86035 5.63769 11.4775 5.63769ZM18.9346 5.41309C18.9346 5.78743 18.7998 6.10563 18.5303 6.36768C18.2607 6.62972 17.9313 6.76074 17.542 6.76074C17.1676 6.76074 16.8494 6.62972 16.5874 6.36768C16.3254 6.10563 16.1943 5.78743 16.1943 5.41309C16.1943 5.02376 16.3254 4.69434 16.5874 4.4248C16.8494 4.15527 17.1676 4.02051 17.542 4.02051C17.9163 4.02051 18.242 4.15902 18.519 4.43603C18.7961 4.71305 18.9346 5.03874 18.9346 5.41309Z"
      fill="#666666" />
  </g>
  <g class="instagram--tablet">
    <path
      d="M11.4775 0.0898438C13.3942 0.0898438 14.959 0.112305 16.1719 0.157227C17.2051 0.202148 18.126 0.381836 18.9346 0.696289C19.7132 0.995768 20.387 1.43001 20.9561 1.99902C21.5251 2.56803 21.9593 3.24186 22.2588 4.02051C22.5732 4.8291 22.7529 5.75 22.7979 6.7832C22.8428 7.99609 22.8652 9.56087 22.8652 11.4775C22.8652 13.3942 22.8428 14.959 22.7979 16.1719C22.7529 17.2051 22.5732 18.126 22.2588 18.9346C21.9593 19.7132 21.5251 20.387 20.9561 20.9561C20.387 21.5251 19.7132 21.9593 18.9346 22.2588C18.126 22.5732 17.2051 22.7529 16.1719 22.7978C14.959 22.8428 13.3942 22.8652 11.4775 22.8652C9.56087 22.8652 7.99609 22.8428 6.7832 22.7978C5.75 22.7529 4.8291 22.5732 4.02051 22.2588C3.24186 21.9593 2.56803 21.5251 1.99902 20.9561C1.43001 20.387 0.995768 19.7132 0.696289 18.9346C0.381836 18.126 0.202148 17.2051 0.157227 16.1719C0.112305 14.959 0.0898438 13.3942 0.0898438 11.4775C0.0898438 9.56087 0.112305 7.99609 0.157227 6.7832C0.202148 5.75 0.381836 4.8291 0.696289 4.02051C0.995768 3.24186 1.43001 2.56803 1.99902 1.99902C2.56803 1.43001 3.24186 0.995768 4.02051 0.696289C4.8291 0.381836 5.75 0.202148 6.7832 0.157227C7.99609 0.112305 9.56087 0.0898438 11.4775 0.0898438ZM11.4775 1.57227C9.486 1.57227 7.86133 1.59473 6.60352 1.63965C5.79492 1.6696 5.04622 1.81185 4.35742 2.06641C3.2793 2.51562 2.51562 3.2793 2.06641 4.35742C1.81185 5.04622 1.6696 5.79492 1.63965 6.60352C1.59473 7.86133 1.57227 9.486 1.57227 11.4775C1.57227 13.4691 1.59473 15.0937 1.63965 16.3516C1.6696 17.1602 1.81185 17.9089 2.06641 18.5977C2.51562 19.6758 3.2793 20.4395 4.35742 20.8887C5.04622 21.1432 5.79492 21.2855 6.60352 21.3154C7.86133 21.3603 9.486 21.3828 11.4775 21.3828C13.4691 21.3828 15.0938 21.3603 16.3516 21.3154C17.1602 21.2855 17.9089 21.1432 18.5977 20.8887C19.6758 20.4395 20.4395 19.6758 20.8887 18.5977C21.1432 17.9089 21.2855 17.1602 21.3154 16.3516C21.3604 15.0937 21.3828 13.4691 21.3828 11.4775C21.3828 9.486 21.3604 7.86133 21.3154 6.60352C21.2855 5.79492 21.1432 5.04622 20.8887 4.35742C20.4395 3.2793 19.6758 2.51562 18.5977 2.06641C17.9089 1.81185 17.1602 1.6696 16.3516 1.63965C15.0938 1.59473 13.4691 1.57227 11.4775 1.57227ZM11.4775 16.0371C12.7354 16.0371 13.8097 15.5916 14.7007 14.7007C15.5916 13.8097 16.0371 12.7354 16.0371 11.4775C16.0371 10.2197 15.5916 9.14534 14.7007 8.25439C13.8097 7.36344 12.7354 6.91797 11.4775 6.91797C10.2197 6.91797 9.14534 7.36344 8.25439 8.25439C7.36344 9.14534 6.91797 10.2197 6.91797 11.4775C6.91797 12.7354 7.36344 13.8097 8.25439 14.7007C9.14534 15.5916 10.2197 16.0371 11.4775 16.0371ZM11.4775 5.63769C13.0947 5.63769 14.4723 6.20671 15.6104 7.34473C16.7484 8.48275 17.3174 9.86035 17.3174 11.4775C17.3174 13.0947 16.7484 14.4723 15.6104 15.6104C14.4723 16.7484 13.0947 17.3174 11.4775 17.3174C9.86035 17.3174 8.48275 16.7484 7.34473 15.6104C6.20671 14.4723 5.6377 13.0947 5.6377 11.4775C5.6377 9.86035 6.20671 8.48275 7.34473 7.34473C8.48275 6.20671 9.86035 5.63769 11.4775 5.63769ZM18.9346 5.41309C18.9346 5.78743 18.7998 6.10563 18.5303 6.36768C18.2607 6.62972 17.9313 6.76074 17.542 6.76074C17.1676 6.76074 16.8494 6.62972 16.5874 6.36768C16.3254 6.10563 16.1943 5.78743 16.1943 5.41309C16.1943 5.02376 16.3254 4.69434 16.5874 4.4248C16.8494 4.15527 17.1676 4.02051 17.542 4.02051C17.9163 4.02051 18.242 4.15902 18.519 4.43603C18.7961 4.71305 18.9346 5.03874 18.9346 5.41309Z"
      fill="#666666" />
  </g>
  <g class="instagram--mobile">
    <path
      d="M7.98438 0.0625C9.31771 0.0625 10.4062 0.078125 11.25 0.109375C11.9688 0.140625 12.6094 0.265625 13.1719 0.484375C13.7135 0.692708 14.1823 0.994792 14.5781 1.39062C14.974 1.78646 15.276 2.25521 15.4844 2.79687C15.7031 3.35937 15.8281 4 15.8594 4.71875C15.8906 5.5625 15.9062 6.65104 15.9062 7.98437C15.9062 9.31771 15.8906 10.4062 15.8594 11.25C15.8281 11.9687 15.7031 12.6094 15.4844 13.1719C15.276 13.7135 14.974 14.1823 14.5781 14.5781C14.1823 14.974 13.7135 15.276 13.1719 15.4844C12.6094 15.7031 11.9688 15.8281 11.25 15.8594C10.4062 15.8906 9.31771 15.9062 7.98438 15.9062C6.65104 15.9062 5.5625 15.8906 4.71875 15.8594C4 15.8281 3.35938 15.7031 2.79688 15.4844C2.25521 15.276 1.78646 14.974 1.39062 14.5781C0.994792 14.1823 0.692708 13.7135 0.484375 13.1719C0.265625 12.6094 0.140625 11.9687 0.109375 11.25C0.078125 10.4062 0.0625 9.31771 0.0625 7.98437C0.0625 6.65104 0.078125 5.5625 0.109375 4.71875C0.140625 4 0.265625 3.35937 0.484375 2.79687C0.692708 2.25521 0.994792 1.78646 1.39062 1.39062C1.78646 0.994792 2.25521 0.692708 2.79688 0.484375C3.35938 0.265625 4 0.140625 4.71875 0.109375C5.5625 0.078125 6.65104 0.0625 7.98438 0.0625ZM7.98438 1.09375C6.59896 1.09375 5.46875 1.10937 4.59375 1.14062C4.03125 1.16146 3.51042 1.26042 3.03125 1.4375C2.28125 1.75 1.75 2.28125 1.4375 3.03125C1.26042 3.51042 1.16146 4.03125 1.14062 4.59375C1.10938 5.46875 1.09375 6.59896 1.09375 7.98437C1.09375 9.36979 1.10938 10.5 1.14062 11.375C1.16146 11.9375 1.26042 12.4583 1.4375 12.9375C1.75 13.6875 2.28125 14.2187 3.03125 14.5312C3.51042 14.7083 4.03125 14.8073 4.59375 14.8281C5.46875 14.8594 6.59896 14.875 7.98438 14.875C9.36979 14.875 10.5 14.8594 11.375 14.8281C11.9375 14.8073 12.4583 14.7083 12.9375 14.5312C13.6875 14.2187 14.2188 13.6875 14.5312 12.9375C14.7083 12.4583 14.8073 11.9375 14.8281 11.375C14.8594 10.5 14.875 9.36979 14.875 7.98437C14.875 6.59896 14.8594 5.46875 14.8281 4.59375C14.8073 4.03125 14.7083 3.51042 14.5312 3.03125C14.2188 2.28125 13.6875 1.75 12.9375 1.4375C12.4583 1.26042 11.9375 1.16146 11.375 1.14062C10.5 1.10937 9.36979 1.09375 7.98438 1.09375ZM7.98438 11.1562C8.85938 11.1562 9.60677 10.8464 10.2266 10.2266C10.8464 9.60677 11.1562 8.85937 11.1562 7.98437C11.1562 7.10937 10.8464 6.36198 10.2266 5.74219C9.60677 5.1224 8.85938 4.8125 7.98438 4.8125C7.10938 4.8125 6.36198 5.1224 5.74219 5.74219C5.1224 6.36198 4.8125 7.10937 4.8125 7.98437C4.8125 8.85937 5.1224 9.60677 5.74219 10.2266C6.36198 10.8464 7.10938 11.1562 7.98438 11.1562ZM7.98438 3.92187C9.10938 3.92187 10.0677 4.31771 10.8594 5.10937C11.651 5.90104 12.0469 6.85937 12.0469 7.98437C12.0469 9.10937 11.651 10.0677 10.8594 10.8594C10.0677 11.651 9.10938 12.0469 7.98438 12.0469C6.85938 12.0469 5.90104 11.651 5.10938 10.8594C4.31771 10.0677 3.92188 9.10937 3.92188 7.98437C3.92188 6.85937 4.31771 5.90104 5.10938 5.10937C5.90104 4.31771 6.85938 3.92187 7.98438 3.92187ZM13.1719 3.76562C13.1719 4.02604 13.0781 4.2474 12.8906 4.42969C12.7031 4.61198 12.474 4.70312 12.2031 4.70312C11.9427 4.70312 11.7214 4.61198 11.5391 4.42969C11.3568 4.2474 11.2656 4.02604 11.2656 3.76562C11.2656 3.49479 11.3568 3.26562 11.5391 3.07812C11.7214 2.89062 11.9427 2.79687 12.2031 2.79687C12.4635 2.79687 12.6901 2.89323 12.8828 3.08594C13.0755 3.27865 13.1719 3.50521 13.1719 3.76562Z"
      fill="#666666" />
  </g>
</svg>
