<svg width="202" height="59" viewBox="0 0 202 59" fill="none" xmlns="http://www.w3.org/2000/svg">
  <g class="logo__text--desktop" clip-path="url(#clip0)">
    <path
      d="M85.6642 41.6611C84.634 40.1469 84.1415 38.3356 84.2642 36.5129V29.0735C84.1343 27.2374 84.6194 25.4102 85.6442 23.8758C86.5709 22.6921 88.1542 22.1035 90.3942 22.1101C92.6342 22.1167 94.1509 22.6358 94.9442 23.6675C95.9115 24.9458 96.3836 26.5265 96.2742 28.1212V29.867H92.1342V27.9724C92.1286 27.4739 92.0852 26.9766 92.0042 26.4845C91.9542 26.1283 91.7893 25.7978 91.5342 25.5422C91.3767 25.4083 91.1939 25.3068 90.9965 25.2438C90.799 25.1808 90.5909 25.1574 90.3842 25.1752C90.0874 25.1313 89.7842 25.1791 89.5158 25.3122C89.2474 25.4453 89.0268 25.6573 88.8842 25.9191C88.6213 26.6157 88.5055 27.3585 88.5442 28.1014V37.5446C88.4986 38.2923 88.6322 39.0402 88.9342 39.7268C89.0785 39.9745 89.2926 40.175 89.5502 40.3037C89.8078 40.4323 90.0977 40.4835 90.3842 40.4509C90.6658 40.4904 90.9527 40.4407 91.2041 40.3089C91.4555 40.1771 91.6585 39.9699 91.7842 39.7169C92.0261 39.019 92.1313 38.2816 92.0942 37.5446V35.5607H96.2342V37.2767C96.3561 38.895 95.9226 40.5066 95.0042 41.8495C94.1242 42.9407 92.6042 43.4763 90.4442 43.4763C88.2842 43.4763 86.5942 42.8811 85.6642 41.6611Z"
      fill="#111111" />
    <path
      d="M101.915 22.3978H106.655L110.655 43.2283H106.715L106.005 38.6258H102.685L101.885 43.1986H97.8849L101.915 22.3978ZM105.565 36.0071L104.305 27.6352L103.055 36.0071H105.565Z"
      fill="#111111" />
    <path d="M113.725 25.5323H110.485V22.3978H121.205V25.5323H118.005V43.1986H113.715L113.725 25.5323Z"
      fill="#111111" />
    <path
      d="M129.616 22.3978H137.746V24.5602H132.546V31.4343H136.766V33.4876H132.546V41.1155H137.796V43.1986H129.616V22.3978Z"
      fill="#444444" />
    <path
      d="M140.157 22.3978H142.157L148.157 36.2154V22.3978H150.597V43.2283H148.727L142.727 29.0239V43.1986H140.247L140.157 22.3978Z"
      fill="#444444" />
    <path
      d="M153.828 22.3978H161.948V24.5602H156.748V31.4343H161.008V33.4876H156.788V41.1155H162.008V43.1986H153.828V22.3978Z"
      fill="#444444" />
    <path
      d="M164.358 22.3978H168.578C170.241 22.265 171.897 22.7259 173.248 23.6972C174.248 24.5602 174.738 25.9687 174.738 27.9228C174.738 30.568 173.875 32.1848 172.148 32.7734L175.148 43.1986H172.308L169.558 33.438H167.288V43.1986H164.358V22.3978ZM168.358 31.3251C169.322 31.4176 170.285 31.1486 171.058 30.5713C171.372 30.2024 171.607 29.7736 171.748 29.3113C171.889 28.849 171.933 28.363 171.878 27.8832C171.898 27.2102 171.8 26.5389 171.588 25.8993C171.502 25.6635 171.369 25.4471 171.198 25.2631C171.026 25.0791 170.819 24.9312 170.588 24.828C169.939 24.5638 169.239 24.4453 168.538 24.4808H167.248V31.3648L168.358 31.3251Z"
      fill="#444444" />
    <path
      d="M178.679 41.6611C177.723 40.0607 177.28 38.21 177.409 36.3542V29.4107C177.374 28.0708 177.543 26.7333 177.909 25.443C178.198 24.473 178.811 23.6297 179.649 23.0525C180.66 22.4481 181.83 22.1579 183.009 22.2192C183.771 22.1473 184.54 22.2414 185.262 22.495C185.984 22.7486 186.642 23.1555 187.189 23.6873C188.148 25.0205 188.602 26.6472 188.469 28.2799V29.0536H185.719V28.4089C185.738 27.6377 185.677 26.8667 185.539 26.1076C185.448 25.6211 185.177 25.186 184.779 24.8875C184.26 24.5836 183.66 24.4419 183.059 24.4808C182.406 24.4254 181.756 24.6247 181.249 25.0363C180.834 25.4267 180.563 25.9435 180.479 26.5044C180.352 27.3215 180.295 28.1477 180.309 28.9743V36.7014C180.229 37.8756 180.432 39.0518 180.899 40.1335C181.17 40.4662 181.515 40.7329 181.906 40.9133C182.297 41.0937 182.725 41.183 183.156 41.1744C183.587 41.1658 184.011 41.0595 184.394 40.8636C184.778 40.6677 185.111 40.3874 185.369 40.0442C185.851 38.9001 186.059 37.661 185.979 36.4237V34.9556H183.319V32.9023H188.619V43.1986H186.809L186.519 40.808C186.29 41.6022 185.796 42.2962 185.119 42.777C184.442 43.2578 183.621 43.4973 182.789 43.4565C182.007 43.5249 181.22 43.3961 180.501 43.0823C179.783 42.7684 179.156 42.2795 178.679 41.6611Z"
      fill="#444444" />
    <path
      d="M194.699 35.8583L190.169 22.3978H192.889L196.099 32.4361L199.259 22.3978H202.009L197.509 35.8583V43.1986H194.709L194.699 35.8583Z"
      fill="#444444" />
  </g>
  <g class="logo__text--tablet" clip-path="url(#clip0)">
    <path
      d="M73.7899 36.4945C72.9025 35.1681 72.4782 33.5814 72.584 31.9848V25.468C72.472 23.8596 72.8899 22.2589 73.7727 20.9148C74.5709 19.8779 75.9348 19.3624 77.8643 19.3682C79.7938 19.374 81.1002 19.8287 81.7836 20.7324C82.6168 21.8522 83.0234 23.2368 82.9292 24.6338V26.1631H79.3631V24.5035C79.3583 24.0668 79.3208 23.6311 79.2511 23.2001C79.208 22.8881 79.066 22.5985 78.8462 22.3746C78.7106 22.2573 78.5531 22.1684 78.3831 22.1132C78.213 22.058 78.0337 22.0376 77.8557 22.0531C77.6 22.0146 77.3388 22.0565 77.1076 22.1731C76.8764 22.2898 76.6864 22.4754 76.5636 22.7048C76.3371 23.315 76.2374 23.9657 76.2707 24.6164V32.8885C76.2314 33.5435 76.3465 34.1986 76.6066 34.8001C76.7309 35.0171 76.9153 35.1927 77.1372 35.3054C77.3591 35.4181 77.6088 35.463 77.8557 35.4344C78.0982 35.469 78.3454 35.4255 78.5619 35.31C78.7785 35.1946 78.9533 35.0131 79.0616 34.7914C79.27 34.1801 79.3606 33.5342 79.3286 32.8885V31.1507H82.8948V32.6539C82.9997 34.0715 82.6263 35.4832 81.8353 36.6596C81.0772 37.6154 79.7679 38.0846 77.9073 38.0846C76.0467 38.0846 74.591 37.5633 73.7899 36.4945Z"
      fill="#111111" />
    <path
      d="M87.788 19.6201H91.871L95.3166 37.8674H91.9227L91.3111 33.8356H88.4513L87.7622 37.8413H84.3167L87.788 19.6201ZM90.9321 31.5417L89.8468 24.208L88.77 31.5417H90.9321Z"
      fill="#111111" />
    <path d="M97.9615 22.3659H95.1707V19.6201H104.405V22.3659H101.648V37.8413H97.9529L97.9615 22.3659Z"
      fill="#111111" />
    <path
      d="M111.65 19.6201H118.653V21.5144H114.174V27.536H117.809V29.3346H114.174V36.0166H118.696V37.8413H111.65V19.6201Z"
      fill="#444444" />
    <path
      d="M120.729 19.6201H122.452L127.62 31.7241V19.6201H129.722V37.8674H128.111L122.943 25.4245V37.8413H120.807L120.729 19.6201Z"
      fill="#444444" />
    <path
      d="M132.505 19.6201H139.499V21.5144H135.02V27.536H138.69V29.3346H135.055V36.0166H139.551V37.8413H132.505V19.6201Z"
      fill="#444444" />
    <path
      d="M141.576 19.6201H145.211C146.643 19.5039 148.07 19.9075 149.234 20.7584C150.095 21.5144 150.517 22.7482 150.517 24.46C150.517 26.7771 149.773 28.1935 148.286 28.709L150.87 37.8413H148.424L146.055 29.2912H144.1V37.8413H141.576V19.6201ZM145.021 27.4404C145.851 27.5214 146.681 27.2858 147.347 26.78C147.618 26.4569 147.82 26.0812 147.942 25.6763C148.063 25.2713 148.101 24.8456 148.053 24.4253C148.071 23.8357 147.986 23.2477 147.804 22.6874C147.73 22.4808 147.615 22.2913 147.467 22.1301C147.319 21.969 147.141 21.8393 146.942 21.749C146.383 21.5176 145.78 21.4137 145.176 21.4449H144.065V27.4751L145.021 27.4404Z"
      fill="#444444" />
    <path
      d="M153.911 36.4945C153.088 35.0926 152.707 33.4714 152.817 31.8458V25.7634C152.788 24.5896 152.933 23.418 153.248 22.2877C153.497 21.438 154.026 20.6992 154.747 20.1936C155.618 19.6642 156.626 19.41 157.641 19.4637C158.298 19.4007 158.961 19.4832 159.582 19.7053C160.204 19.9274 160.771 20.2839 161.242 20.7497C162.068 21.9176 162.459 23.3426 162.344 24.7728V25.4506H159.976V24.8858C159.992 24.2103 159.94 23.5348 159.821 22.8699C159.742 22.4437 159.509 22.0626 159.166 21.8011C158.719 21.5349 158.202 21.4108 157.684 21.4449C157.122 21.3963 156.562 21.5709 156.125 21.9315C155.768 22.2734 155.534 22.7261 155.462 23.2175C155.353 23.9332 155.304 24.657 155.315 25.3811V32.1499C155.247 33.1785 155.421 34.2088 155.824 35.1564C156.057 35.4478 156.354 35.6814 156.691 35.8395C157.028 35.9975 157.396 36.0757 157.768 36.0682C158.139 36.0606 158.504 35.9675 158.835 35.7959C159.165 35.6243 159.452 35.3788 159.674 35.0782C160.089 34.076 160.269 32.9905 160.2 31.9066V30.6206H157.908V28.822H162.474V37.8413H160.914L160.665 35.7472C160.467 36.4429 160.042 37.0508 159.459 37.472C158.876 37.8933 158.168 38.103 157.452 38.0672C156.778 38.1272 156.1 38.0144 155.481 37.7395C154.862 37.4645 154.322 37.0363 153.911 36.4945Z"
      fill="#444444" />
    <path
      d="M167.711 31.4113L163.809 19.6201H166.152L168.917 28.4136L171.639 19.6201H174.008L170.132 31.4113V37.8413H167.72L167.711 31.4113Z"
      fill="#444444" />
  </g>
  <g class="logo__text--mobile" clip-path="url(#clip0)">
    <path
      d="M1.26449 16.5385C0.36955 15.2762 -0.0747041 13.7627 1.02073e-05 12.2308V5.84615C-0.108365 4.29774 0.308071 2.75746 1.18546 1.46154C2.05478 0.461538 3.39829 0 5.37403 0C7.34978 0 8.61425 0.461538 9.40455 1.30769C10.2626 2.37941 10.6846 3.72136 10.59 5.07692V6.61539H6.71754V4.84615C6.74881 4.32289 6.66808 3.799 6.48045 3.30769C6.38016 3.10938 6.2212 2.9448 6.02403 2.83513C5.82686 2.72547 5.60049 2.67572 5.37403 2.69231C4.82082 2.69231 4.42568 2.84615 4.26762 3.23077C4.08883 3.77733 4.00862 4.34988 4.03053 4.92308V13.1538C3.98879 13.71 4.0978 14.267 4.34665 14.7692C4.5047 15.1538 4.89985 15.3077 5.45306 15.3077C6.00627 15.3077 6.32239 15.1538 6.48045 14.7692C6.66013 14.2494 6.74049 13.7019 6.71754 13.1538V11.3077H10.59V12.8462C10.6704 14.2238 10.2508 15.5852 9.40455 16.6923C8.61425 17.6154 7.27075 18.0769 5.37403 18.0769C3.47732 18 2.05478 17.5385 1.26449 16.5385Z"
      fill="#111111" />
    <path
      d="M15.2527 0.230774H19.7574L23.0767 17.7692H19.4413L18.8091 14.0769H16.2011L15.5689 17.7692H11.8545L15.2527 0.230774ZM18.493 11.7692L17.5446 4.92308L16.5963 11.7692H18.493Z"
      fill="#111111" />
    <path d="M25.8427 3.15385H23.1557V0.230774H32.5602V3.07693H29.8732V17.7692H25.8427V3.15385Z" fill="#111111" />
    <path
      d="M39.752 0.230774H46.7066V2.07693H42.2019V7.84616H45.8372V9.61539H42.2019V16.0769H46.7066V17.8462H39.6729V0.230774H39.752Z"
      fill="#111111" />
    <path
      d="M48.7613 0.230774H50.5L55.6369 11.8462V0.230774H57.6917V17.7692H56.1111L50.8951 5.76924V17.7692H48.7613V0.230774Z"
      fill="#111111" />
    <path
      d="M60.0626 0.230774H67.0172V2.07693H62.5125V7.84616H66.1479V9.61539H62.5125V16.0769H67.0172V17.8462H60.0626V0.230774Z"
      fill="#111111" />
    <path
      d="M69.072 0.230776H72.7074C74.1375 0.134624 75.5587 0.514359 76.7379 1.3077C77.6072 2.00001 78.0024 3.23078 78.0024 4.84616C78.0024 7.07693 77.2911 8.46154 75.7895 8.92308L78.3185 17.6923H75.8686L73.4977 9.46154H71.5219V17.6923H68.993V0.230776H69.072ZM72.5493 7.76924C73.364 7.83458 74.1761 7.61653 74.8412 7.15385C75.3154 6.76924 75.5524 6.00001 75.5524 4.84616C75.5743 4.27297 75.4941 3.70041 75.3154 3.15385C75.1375 2.76166 74.832 2.4373 74.446 2.23078C73.9017 1.98935 73.3042 1.88361 72.7074 1.92308H71.601V7.69231H72.5493V7.76924Z"
      fill="#111111" />
    <path
      d="M81.1635 16.4615C80.342 15.1166 79.9564 13.5617 80.0571 12V6.15385C80.0376 5.03911 80.1705 3.9268 80.4522 2.84616C80.7167 2.03863 81.2437 1.33668 81.9538 0.846156C82.8362 0.337752 83.8542 0.0967332 84.8779 0.153848C86.5375 0.153848 87.723 0.538464 88.4343 1.38462C89.2524 2.50191 89.6438 3.86238 89.5407 5.23077V5.84616H87.1698V5.30769C87.1734 4.66346 87.1205 4.0201 87.0117 3.38462C86.9451 2.98304 86.7178 2.62349 86.3795 2.38462C85.9353 2.10082 85.4081 1.96579 84.8779 2C84.3113 1.96466 83.7504 2.12843 83.2973 2.46154C83.1114 2.61401 82.9595 2.80182 82.8508 3.01345C82.742 3.22508 82.6789 3.45608 82.6651 3.69231C82.5609 4.37999 82.5081 5.07412 82.507 5.76923V12.3077C82.4488 13.3038 82.6105 14.3006 82.9812 15.2308C83.2973 15.8462 83.9296 16.0769 84.8779 16.0769C85.2524 16.1223 85.6322 16.0589 85.9697 15.8947C86.3072 15.7304 86.5873 15.4727 86.7746 15.1538C87.1922 14.1811 87.3812 13.1299 87.3278 12.0769V10.8462H85.036V9.07693H89.6197V17.7692H88.0391L87.802 15.7692C87.5948 16.4395 87.1634 17.0231 86.5763 17.4273C85.9892 17.8315 85.2801 18.0331 84.5618 18C83.9088 18.0374 83.2565 17.9164 82.6633 17.6479C82.0702 17.3794 81.5549 16.9717 81.1635 16.4615Z"
      fill="#111111" />
    <path
      d="M94.6776 11.6154L90.8052 0.307693H93.1761L95.9421 8.76923L98.6291 0.307693H101L97.1275 11.6154V17.7692H94.7566V11.6154H94.6776Z"
      fill="#111111" />
  </g>
  <defs>
    <clipPath id="clip0">
      <rect width="202" height="59" fill="white" />
    </clipPath>
  </defs>
</svg>
