<svg width="138" height="30" viewBox="0 0 138 30" fill="none" xmlns="http://www.w3.org/2000/svg">
<g filter="url(#filter0_d)">
<path d="M4.07009 6.99266C4.07009 6.37082 4.49321 6.03552 5.33945 5.98675L8.60039 6.00503C8.81925 6.00503 8.96515 6.09648 9.03811 6.27938C9.37368 7.19385 9.74938 7.98334 10.1652 8.64785C10.581 9.31237 11.1245 10.0775 11.7957 10.9432C11.854 11.0529 11.9489 11.1078 12.0802 11.1078C12.1823 11.1078 12.2626 11.0651 12.3209 10.9798L12.3866 10.7786L12.4085 7.6145C12.4085 7.39503 12.3465 7.24871 12.2224 7.17556C12.0984 7.1024 11.8686 7.04753 11.5331 7.01095C11.2704 6.97437 11.1391 6.84025 11.1391 6.60859C11.1391 6.55981 11.1464 6.52323 11.161 6.49885C11.4674 5.70631 12.3428 5.31004 13.7873 5.31004L15.0129 5.29175C15.5673 5.29175 16.0269 5.40758 16.3916 5.63925C16.7564 5.87091 16.9388 6.2367 16.9388 6.73661V10.8883C17.0409 10.9493 17.1357 10.9798 17.2233 10.9798C17.4421 10.9798 17.6318 10.87 17.7923 10.6505C19.3973 8.77283 20.2654 7.51696 20.3967 6.88293C20.3967 6.87073 20.4113 6.84025 20.4405 6.79148C20.5426 6.60859 20.7104 6.45008 20.9438 6.31595C21.1773 6.18183 21.3815 6.09039 21.5566 6.04161C21.615 6.01723 21.6806 6.00503 21.7536 6.00503H25.1459L25.3647 6.02332C25.6565 6.02332 25.8827 6.13916 26.0432 6.37082C26.1015 6.44398 26.1416 6.52323 26.1635 6.60859C26.1854 6.69394 26.2 6.77929 26.2073 6.86464C26.2146 6.94999 26.2182 6.99876 26.2182 7.01095V7.13898C26.1161 7.63889 25.8571 8.17233 25.4413 8.7393C25.0255 9.30627 24.4966 9.91897 23.8546 10.5774C23.2126 11.2358 22.8114 11.6687 22.6509 11.8759C22.5196 12.0222 22.4539 12.1564 22.4539 12.2783C22.4539 12.3758 22.5123 12.4856 22.629 12.6075L25.8243 15.9728C25.9994 16.1678 26.0869 16.3812 26.0869 16.6129C26.0869 16.8933 25.9556 17.125 25.693 17.3079C25.4304 17.4908 25.1167 17.5944 24.7519 17.6188L24.3799 17.6371H21.0533C21.0387 17.6371 21.0095 17.6401 20.9657 17.6462C20.9219 17.6523 20.8928 17.6554 20.8782 17.6554C20.5572 17.6554 20.2581 17.5396 19.9809 17.3079C19.8787 17.2103 19.193 16.491 17.9236 15.1497C17.8507 15.0644 17.7485 14.9851 17.6172 14.912C17.5589 15.1071 17.4823 15.3875 17.3874 15.7533C17.2926 16.1191 17.2233 16.3812 17.1795 16.5397L17.1139 16.8506C16.968 17.2774 16.6616 17.5335 16.1947 17.6188L15.8883 17.6371H13.7435C12.5325 17.6371 11.3251 17.1738 10.1214 16.2471C8.91773 15.3204 7.8344 14.1225 6.87144 12.6532C5.90848 11.184 5.01117 9.47392 4.17952 7.52306C4.10657 7.36455 4.07009 7.18775 4.07009 6.99266ZM17.2233 11.7296C16.9169 11.7296 16.6397 11.6595 16.3916 11.5193C16.1436 11.3791 16.0196 11.187 16.0196 10.9432V6.73661C16.0196 6.49275 15.9466 6.319 15.8007 6.21536C15.6548 6.11172 15.3995 6.0599 15.0347 6.0599L13.7873 6.09648C13.1599 6.09648 12.6857 6.18793 12.3647 6.37082C13.0067 6.62687 13.3277 7.04143 13.3277 7.6145V10.8334C13.2985 11.1383 13.1526 11.3913 12.89 11.5924C12.6273 11.7936 12.3355 11.8942 12.0145 11.8942C11.5768 11.8942 11.2412 11.7174 11.0078 11.3638C9.86975 9.92506 9.02351 8.55945 8.46908 7.267L8.27211 6.79148L5.36134 6.77319C5.17166 6.77319 5.06588 6.78233 5.044 6.80062C5.02211 6.81891 5.01117 6.87073 5.01117 6.95608C5.01117 7.06582 5.02576 7.18165 5.05494 7.30358L5.51454 8.32779C6.74013 10.9737 8.07149 13.0586 9.50864 14.5828C10.9458 16.1069 12.3574 16.8689 13.7435 16.8689H15.932C16.0196 16.8689 16.0852 16.8476 16.129 16.8049C16.1728 16.7623 16.2093 16.6799 16.2384 16.558L16.2822 16.3751L16.698 14.7657C16.8148 14.5462 16.9169 14.3999 17.0044 14.3267C17.1649 14.1926 17.3546 14.1255 17.5735 14.1255C17.9236 14.1255 18.2811 14.3023 18.6459 14.6559L20.5061 16.6312C20.6228 16.7897 20.7469 16.8689 20.8782 16.8689H24.4893C24.927 16.8689 25.1459 16.7775 25.1459 16.5946C25.1459 16.5336 25.124 16.4727 25.0802 16.4117L21.9068 13.1013C21.6588 12.8453 21.5347 12.5709 21.5347 12.2783C21.5347 11.9857 21.6515 11.7052 21.8849 11.437C22.0746 11.1931 22.443 10.7877 22.9901 10.2207C23.5373 9.65377 24.0151 9.12338 24.4236 8.62956C24.8322 8.13575 25.1021 7.68766 25.2334 7.28529L25.299 7.04753C25.2845 7.02314 25.2772 6.98352 25.2772 6.92865C25.2772 6.87378 25.2699 6.82806 25.2553 6.79148H21.8193C21.6004 6.86464 21.4253 6.97437 21.294 7.12069L21.1627 7.46819C20.7979 8.3095 19.8423 9.60805 18.2957 11.3638C17.9893 11.6077 17.6318 11.7296 17.2233 11.7296Z" fill="#666666"/>
<path d="M70.9844 4.0625C72.3177 4.0625 73.4062 4.07812 74.25 4.10937C74.9688 4.14062 75.6094 4.26562 76.1719 4.48437C76.7135 4.69271 77.1823 4.99479 77.5781 5.39062C77.974 5.78646 78.276 6.25521 78.4844 6.79687C78.7031 7.35937 78.8281 8 78.8594 8.71875C78.8906 9.5625 78.9062 10.651 78.9062 11.9844C78.9062 13.3177 78.8906 14.4062 78.8594 15.25C78.8281 15.9687 78.7031 16.6094 78.4844 17.1719C78.276 17.7135 77.974 18.1823 77.5781 18.5781C77.1823 18.974 76.7135 19.276 76.1719 19.4844C75.6094 19.7031 74.9688 19.8281 74.25 19.8594C73.4062 19.8906 72.3177 19.9062 70.9844 19.9062C69.651 19.9062 68.5625 19.8906 67.7188 19.8594C67 19.8281 66.3594 19.7031 65.7969 19.4844C65.2552 19.276 64.7865 18.974 64.3906 18.5781C63.9948 18.1823 63.6927 17.7135 63.4844 17.1719C63.2656 16.6094 63.1406 15.9687 63.1094 15.25C63.0781 14.4062 63.0625 13.3177 63.0625 11.9844C63.0625 10.651 63.0781 9.5625 63.1094 8.71875C63.1406 8 63.2656 7.35937 63.4844 6.79687C63.6927 6.25521 63.9948 5.78646 64.3906 5.39062C64.7865 4.99479 65.2552 4.69271 65.7969 4.48437C66.3594 4.26562 67 4.14062 67.7188 4.10937C68.5625 4.07812 69.651 4.0625 70.9844 4.0625ZM70.9844 5.09375C69.599 5.09375 68.4688 5.10937 67.5938 5.14062C67.0312 5.16146 66.5104 5.26042 66.0312 5.4375C65.2812 5.75 64.75 6.28125 64.4375 7.03125C64.2604 7.51042 64.1615 8.03125 64.1406 8.59375C64.1094 9.46875 64.0938 10.599 64.0938 11.9844C64.0938 13.3698 64.1094 14.5 64.1406 15.375C64.1615 15.9375 64.2604 16.4583 64.4375 16.9375C64.75 17.6875 65.2812 18.2187 66.0312 18.5312C66.5104 18.7083 67.0312 18.8073 67.5938 18.8281C68.4688 18.8594 69.599 18.875 70.9844 18.875C72.3698 18.875 73.5 18.8594 74.375 18.8281C74.9375 18.8073 75.4583 18.7083 75.9375 18.5312C76.6875 18.2187 77.2188 17.6875 77.5312 16.9375C77.7083 16.4583 77.8073 15.9375 77.8281 15.375C77.8594 14.5 77.875 13.3698 77.875 11.9844C77.875 10.599 77.8594 9.46875 77.8281 8.59375C77.8073 8.03125 77.7083 7.51042 77.5312 7.03125C77.2188 6.28125 76.6875 5.75 75.9375 5.4375C75.4583 5.26042 74.9375 5.16146 74.375 5.14062C73.5 5.10937 72.3698 5.09375 70.9844 5.09375ZM70.9844 15.1562C71.8594 15.1562 72.6068 14.8464 73.2266 14.2266C73.8464 13.6068 74.1562 12.8594 74.1562 11.9844C74.1562 11.1094 73.8464 10.362 73.2266 9.74219C72.6068 9.1224 71.8594 8.8125 70.9844 8.8125C70.1094 8.8125 69.362 9.1224 68.7422 9.74219C68.1224 10.362 67.8125 11.1094 67.8125 11.9844C67.8125 12.8594 68.1224 13.6068 68.7422 14.2266C69.362 14.8464 70.1094 15.1562 70.9844 15.1562ZM70.9844 7.92187C72.1094 7.92187 73.0677 8.31771 73.8594 9.10937C74.651 9.90104 75.0469 10.8594 75.0469 11.9844C75.0469 13.1094 74.651 14.0677 73.8594 14.8594C73.0677 15.651 72.1094 16.0469 70.9844 16.0469C69.8594 16.0469 68.901 15.651 68.1094 14.8594C67.3177 14.0677 66.9219 13.1094 66.9219 11.9844C66.9219 10.8594 67.3177 9.90104 68.1094 9.10937C68.901 8.31771 69.8594 7.92187 70.9844 7.92187ZM76.1719 7.76562C76.1719 8.02604 76.0781 8.2474 75.8906 8.42969C75.7031 8.61198 75.474 8.70312 75.2031 8.70312C74.9427 8.70312 74.7214 8.61198 74.5391 8.42969C74.3568 8.2474 74.2656 8.02604 74.2656 7.76562C74.2656 7.49479 74.3568 7.26562 74.5391 7.07812C74.7214 6.89062 74.9427 6.79687 75.2031 6.79687C75.4635 6.79687 75.6901 6.89323 75.8828 7.08594C76.0755 7.27865 76.1719 7.50521 76.1719 7.76562Z" fill="#666666"/>
<path d="M128.5 1.83325H125.75C124.534 1.83325 123.369 2.30674 122.509 3.14957C121.65 3.99239 121.167 5.1355 121.167 6.32743V9.02394H118.417V12.6193H121.167V19.81H124.833V12.6193H127.583L128.5 9.02394H124.833V6.32743C124.833 6.08905 124.93 5.86042 125.102 5.69186C125.274 5.52329 125.507 5.4286 125.75 5.4286H128.5V1.83325Z" stroke="#666666" stroke-width="1.1" stroke-linecap="round" stroke-linejoin="round"/>
</g>
<defs>
<filter id="filter0_d" x="0" y="0" width="138" height="30" filterUnits="userSpaceOnUse" color-interpolation-filters="sRGB">
<feFlood flood-opacity="0" result="BackgroundImageFix"/>
<feColorMatrix in="SourceAlpha" type="matrix" values="0 0 0 0 0 0 0 0 0 0 0 0 0 0 0 0 0 0 127 0"/>
<feOffset dy="4"/>
<feGaussianBlur stdDeviation="2"/>
<feColorMatrix type="matrix" values="0 0 0 0 0 0 0 0 0 0 0 0 0 0 0 0 0 0 0.25 0"/>
<feBlend mode="normal" in2="BackgroundImageFix" result="effect1_dropShadow"/>
<feBlend mode="normal" in="SourceGraphic" in2="effect1_dropShadow" result="shape"/>
</filter>
</defs>
</svg>
