<svg width="30" height="22" viewBox="0 0 30 22" fill="none" xmlns="http://www.w3.org/2000/svg">
  <g class="vk--desktop">
    <path
      d="M0.0914307 5.48988C0.0914307 4.63485 0.643326 4.17381 1.74712 4.10674L6.00052 4.13189C6.28599 4.13189 6.47629 4.25763 6.57145 4.50911C7.00916 5.76651 7.4992 6.85206 8.04158 7.76577C8.58397 8.67948 9.29287 9.7315 10.1683 10.9218C10.2444 11.0727 10.3681 11.1482 10.5394 11.1482C10.6726 11.1482 10.7773 11.0895 10.8534 10.9721L10.939 10.6955L10.9676 6.34491C10.9676 6.04313 10.8867 5.84195 10.7249 5.74136C10.5632 5.64077 10.2634 5.56532 9.82573 5.51503C9.48318 5.46473 9.3119 5.28031 9.3119 4.96177C9.3119 4.89471 9.32141 4.84442 9.34044 4.81089C9.74009 3.72114 10.8819 3.17627 12.766 3.17627L14.3646 3.15112C15.0878 3.15112 15.6872 3.31039 16.163 3.62893C16.6388 3.94747 16.8767 4.45043 16.8767 5.13781V10.8464C17.0099 10.9302 17.1336 10.9721 17.2478 10.9721C17.5332 10.9721 17.7806 10.8212 17.99 10.5195C20.0834 7.93761 21.2157 6.21079 21.387 5.33899C21.387 5.32223 21.406 5.28031 21.4441 5.21325C21.5773 4.96177 21.7962 4.74383 22.1007 4.55941C22.4051 4.37499 22.6716 4.24925 22.9 4.18219C22.9761 4.14866 23.0617 4.13189 23.1569 4.13189H27.5816L27.867 4.15704C28.2476 4.15704 28.5426 4.31631 28.752 4.63485C28.8281 4.73544 28.8804 4.84442 28.909 4.96177C28.9375 5.07913 28.9565 5.19649 28.966 5.31384C28.9756 5.4312 28.9803 5.49826 28.9803 5.51503V5.69106C28.8471 6.37844 28.5093 7.11192 27.9669 7.89151C27.4245 8.67109 26.7347 9.51355 25.8973 10.4189C25.06 11.3242 24.5366 11.9194 24.3273 12.2044C24.156 12.4056 24.0704 12.59 24.0704 12.7576C24.0704 12.8918 24.1465 13.0426 24.2987 13.2103L28.4665 17.8375C28.6949 18.1058 28.809 18.3992 28.809 18.7177C28.809 19.1033 28.6378 19.4218 28.2952 19.6733C27.9527 19.9248 27.5435 20.0673 27.0677 20.1008L26.5824 20.126H22.2434C22.2244 20.126 22.1863 20.1302 22.1292 20.1385C22.0721 20.1469 22.034 20.1511 22.015 20.1511C21.5963 20.1511 21.2062 19.9919 20.8446 19.6733C20.7114 19.5392 19.8169 18.55 18.1613 16.7059C18.0661 16.5885 17.9329 16.4795 17.7616 16.3789C17.6855 16.6472 17.5856 17.0328 17.4619 17.5357C17.3382 18.0387 17.2478 18.3992 17.1907 18.6171L17.105 19.0446C16.9147 19.6314 16.5151 19.9835 15.9061 20.1008L15.5065 20.126H12.7089C11.1293 20.126 9.55454 19.4889 7.98449 18.2147C6.41444 16.9406 5.0014 15.2934 3.74536 13.2732C2.48932 11.2529 1.31892 8.90162 0.234162 6.21917C0.139008 6.00122 0.0914307 5.75813 0.0914307 5.48988ZM17.2478 12.0032C16.8481 12.0032 16.4865 11.9068 16.163 11.714C15.8395 11.5212 15.6777 11.2571 15.6777 10.9218V5.13781C15.6777 4.8025 15.5826 4.5636 15.3923 4.42109C15.202 4.27859 14.8689 4.20734 14.3931 4.20734L12.766 4.25763C11.9477 4.25763 11.3292 4.38337 10.9105 4.63485C11.7479 4.98692 12.1665 5.55694 12.1665 6.34491V10.7709C12.1285 11.1901 11.9382 11.538 11.5956 11.8146C11.253 12.0912 10.8724 12.2295 10.4538 12.2295C9.88282 12.2295 9.44511 11.9864 9.14062 11.5002C7.65621 9.52193 6.55242 7.64422 5.82924 5.8671L5.57233 5.21325L1.77566 5.18811C1.52826 5.18811 1.39029 5.20068 1.36174 5.22583C1.3332 5.25098 1.31892 5.32223 1.31892 5.43958C1.31892 5.59047 1.33795 5.74974 1.37602 5.9174L1.97549 7.32568C3.57408 10.9637 5.31065 13.8306 7.18519 15.9263C9.05974 18.0219 10.901 19.0698 12.7089 19.0698H15.5635C15.6777 19.0698 15.7634 19.0404 15.8205 18.9817C15.8776 18.9231 15.9251 18.8099 15.9632 18.6422L16.0203 18.3908L16.5627 16.1778C16.7149 15.876 16.8481 15.6748 16.9623 15.5742C17.1717 15.3898 17.4191 15.2976 17.7045 15.2976C18.1613 15.2976 18.6275 15.5407 19.1033 16.0269L21.5297 18.7428C21.682 18.9608 21.8437 19.0698 22.015 19.0698H26.7252C27.2961 19.0698 27.5816 18.944 27.5816 18.6925C27.5816 18.6087 27.553 18.5249 27.4959 18.4411L23.3567 13.8893C23.0332 13.5372 22.8714 13.16 22.8714 12.7576C22.8714 12.3553 23.0237 11.9697 23.3281 11.6008C23.5755 11.2655 24.0561 10.7081 24.7697 9.92849C25.4834 9.1489 26.1067 8.41961 26.6395 7.74062C27.1724 7.06163 27.5245 6.4455 27.6957 5.89225L27.7814 5.56532C27.7623 5.53179 27.7528 5.47731 27.7528 5.40186C27.7528 5.32642 27.7433 5.26355 27.7243 5.21325H23.2425C22.957 5.31384 22.7287 5.46473 22.5574 5.66592L22.3861 6.14373C21.9103 7.30053 20.6638 9.08603 18.6465 11.5002C18.2469 11.8355 17.7806 12.0032 17.2478 12.0032Z"
      fill="#666666" />
  </g>
  <g class="vk--tablet">
    <path
      d="M0.0914307 5.48964C0.0914307 4.63461 0.643326 4.17356 1.74712 4.1065L6.00052 4.13165C6.28599 4.13165 6.47629 4.25739 6.57145 4.50887C7.00916 5.76626 7.4992 6.85182 8.04158 7.76552C8.58397 8.67923 9.29287 9.73125 10.1683 10.9216C10.2444 11.0725 10.3681 11.1479 10.5394 11.1479C10.6726 11.1479 10.7773 11.0892 10.8534 10.9719L10.939 10.6953L10.9676 6.34467C10.9676 6.04289 10.8867 5.84171 10.7249 5.74112C10.5632 5.64052 10.2634 5.56508 9.82573 5.51478C9.48318 5.46449 9.3119 5.28007 9.3119 4.96153C9.3119 4.89447 9.32141 4.84417 9.34044 4.81064C9.74009 3.7209 10.8819 3.17603 12.766 3.17603L14.3646 3.15088C15.0878 3.15088 15.6872 3.31015 16.163 3.62869C16.6388 3.94723 16.8767 4.45019 16.8767 5.13757V10.8461C17.0099 10.93 17.1336 10.9719 17.2478 10.9719C17.5332 10.9719 17.7806 10.821 17.99 10.5192C20.0834 7.93737 21.2157 6.21054 21.387 5.33875C21.387 5.32198 21.406 5.28007 21.4441 5.21301C21.5773 4.96153 21.7962 4.74358 22.1007 4.55916C22.4051 4.37474 22.6716 4.24901 22.9 4.18194C22.9761 4.14841 23.0617 4.13165 23.1569 4.13165H27.5816L27.867 4.1568C28.2476 4.1568 28.5426 4.31607 28.752 4.63461C28.8281 4.7352 28.8804 4.84417 28.909 4.96153C28.9375 5.07889 28.9565 5.19624 28.966 5.3136C28.9756 5.43096 28.9803 5.49802 28.9803 5.51478V5.69082C28.8471 6.3782 28.5093 7.11168 27.9669 7.89126C27.4245 8.67085 26.7347 9.51331 25.8973 10.4186C25.06 11.324 24.5366 11.9191 24.3273 12.2041C24.156 12.4053 24.0704 12.5897 24.0704 12.7574C24.0704 12.8915 24.1465 13.0424 24.2987 13.2101L28.4665 17.8373C28.6949 18.1055 28.809 18.3989 28.809 18.7174C28.809 19.103 28.6378 19.4216 28.2952 19.6731C27.9527 19.9245 27.5435 20.0671 27.0677 20.1006L26.5824 20.1257H22.2434C22.2244 20.1257 22.1863 20.1299 22.1292 20.1383C22.0721 20.1467 22.034 20.1509 22.015 20.1509C21.5963 20.1509 21.2062 19.9916 20.8446 19.6731C20.7114 19.5389 19.8169 18.5498 18.1613 16.7056C18.0661 16.5883 17.9329 16.4793 17.7616 16.3787C17.6855 16.6469 17.5856 17.0325 17.4619 17.5355C17.3382 18.0385 17.2478 18.3989 17.1907 18.6169L17.105 19.0444C16.9147 19.6312 16.5151 19.9832 15.9061 20.1006L15.5065 20.1257H12.7089C11.1293 20.1257 9.55454 19.4887 7.98449 18.2145C6.41444 16.9403 5.0014 15.2931 3.74536 13.2729C2.48932 11.2527 1.31892 8.90137 0.234162 6.21893C0.139008 6.00098 0.0914307 5.75788 0.0914307 5.48964ZM17.2478 12.003C16.8481 12.003 16.4865 11.9065 16.163 11.7137C15.8395 11.5209 15.6777 11.2569 15.6777 10.9216V5.13757C15.6777 4.80226 15.5826 4.56335 15.3923 4.42085C15.202 4.27834 14.8689 4.20709 14.3931 4.20709L12.766 4.25739C11.9477 4.25739 11.3292 4.38313 10.9105 4.63461C11.7479 4.98668 12.1665 5.5567 12.1665 6.34467V10.7707C12.1285 11.1898 11.9382 11.5377 11.5956 11.8143C11.253 12.091 10.8724 12.2293 10.4538 12.2293C9.88282 12.2293 9.44511 11.9862 9.14062 11.5C7.65621 9.52169 6.55242 7.64398 5.82924 5.86686L5.57233 5.21301L1.77566 5.18786C1.52826 5.18786 1.39029 5.20044 1.36174 5.22558C1.3332 5.25073 1.31892 5.32198 1.31892 5.43934C1.31892 5.59023 1.33795 5.7495 1.37602 5.91715L1.97549 7.32544C3.57408 10.9635 5.31065 13.8304 7.18519 15.926C9.05974 18.0217 10.901 19.0695 12.7089 19.0695H15.5635C15.6777 19.0695 15.7634 19.0402 15.8205 18.9815C15.8776 18.9228 15.9251 18.8097 15.9632 18.642L16.0203 18.3905L16.5627 16.1775C16.7149 15.8757 16.8481 15.6745 16.9623 15.574C17.1717 15.3895 17.4191 15.2973 17.7045 15.2973C18.1613 15.2973 18.6275 15.5404 19.1033 16.0266L21.5297 18.7426C21.682 18.9605 21.8437 19.0695 22.015 19.0695H26.7252C27.2961 19.0695 27.5816 18.9438 27.5816 18.6923C27.5816 18.6085 27.553 18.5246 27.4959 18.4408L23.3567 13.889C23.0332 13.537 22.8714 13.1598 22.8714 12.7574C22.8714 12.355 23.0237 11.9694 23.3281 11.6006C23.5755 11.2653 24.0561 10.7078 24.7697 9.92825C25.4834 9.14866 26.1067 8.41937 26.6395 7.74038C27.1724 7.06138 27.5245 6.44526 27.6957 5.892L27.7814 5.56508C27.7623 5.53155 27.7528 5.47706 27.7528 5.40162C27.7528 5.32617 27.7433 5.2633 27.7243 5.21301H23.2425C22.957 5.3136 22.7287 5.46449 22.5574 5.66567L22.3861 6.14348C21.9103 7.30029 20.6638 9.08579 18.6465 11.5C18.2469 11.8353 17.7806 12.003 17.2478 12.003Z"
      fill="#666666" />
  </g>
  <g class="vk--mobile">
    <path
      d="M0.0700912 3.99266C0.0700912 3.37082 0.493211 3.03552 1.33945 2.98675L4.60039 3.00503C4.81925 3.00503 4.96515 3.09648 5.03811 3.27938C5.37368 4.19385 5.74938 4.98334 6.16521 5.64785C6.58103 6.31237 7.12453 7.07747 7.79568 7.94317C7.85404 8.05291 7.94888 8.10778 8.08019 8.10778C8.18233 8.10778 8.26257 8.0651 8.32093 7.97975L8.38659 7.77857L8.40848 4.6145C8.40848 4.39503 8.34647 4.24871 8.22245 4.17556C8.09843 4.1024 7.86863 4.04753 7.53305 4.01095C7.27043 3.97437 7.13912 3.84025 7.13912 3.60859C7.13912 3.55981 7.14641 3.52323 7.161 3.49885C7.4674 2.70631 8.34282 2.31004 9.78726 2.31004L11.0129 2.29175C11.5673 2.29175 12.0269 2.40758 12.3916 2.63925C12.7564 2.87091 12.9388 3.2367 12.9388 3.73661V7.88831C13.0409 7.94927 13.1357 7.97975 13.2233 7.97975C13.4421 7.97975 13.6318 7.87002 13.7923 7.65054C15.3973 5.77283 16.2654 4.51696 16.3967 3.88293C16.3967 3.87073 16.4113 3.84025 16.4405 3.79148C16.5426 3.60859 16.7104 3.45008 16.9438 3.31595C17.1773 3.18183 17.3815 3.09039 17.5566 3.04161C17.615 3.01723 17.6806 3.00503 17.7536 3.00503H21.1459L21.3647 3.02332C21.6565 3.02332 21.8827 3.13916 22.0432 3.37082C22.1015 3.44398 22.1416 3.52323 22.1635 3.60859C22.1854 3.69394 22.2 3.77929 22.2073 3.86464C22.2146 3.94999 22.2182 3.99876 22.2182 4.01095V4.13898C22.1161 4.63889 21.8571 5.17233 21.4413 5.7393C21.0255 6.30627 20.4966 6.91897 19.8546 7.57739C19.2126 8.2358 18.8114 8.66865 18.6509 8.87593C18.5196 9.02225 18.4539 9.15637 18.4539 9.2783C18.4539 9.37584 18.5123 9.48558 18.629 9.60751L21.8243 12.9728C21.9994 13.1678 22.0869 13.3812 22.0869 13.6129C22.0869 13.8933 21.9556 14.125 21.693 14.3079C21.4304 14.4908 21.1167 14.5944 20.7519 14.6188L20.3799 14.6371H17.0533C17.0387 14.6371 17.0095 14.6401 16.9657 14.6462C16.9219 14.6523 16.8928 14.6554 16.8782 14.6554C16.5572 14.6554 16.2581 14.5396 15.9809 14.3079C15.8787 14.2103 15.193 13.491 13.9236 12.1497C13.8507 12.0644 13.7485 11.9851 13.6172 11.912C13.5589 12.1071 13.4823 12.3875 13.3874 12.7533C13.2926 13.1191 13.2233 13.3812 13.1795 13.5397L13.1139 13.8507C12.968 14.2774 12.6616 14.5335 12.1947 14.6188L11.8883 14.6371H9.74349C8.53249 14.6371 7.32514 14.1738 6.12144 13.2471C4.91773 12.3204 3.8344 11.1225 2.87144 9.65323C1.90848 8.18398 1.01117 6.47392 0.179519 4.52306C0.106567 4.36455 0.0700912 4.18775 0.0700912 3.99266ZM13.2233 8.72962C12.9169 8.72962 12.6397 8.65951 12.3916 8.51929C12.1436 8.37907 12.0196 8.18703 12.0196 7.94317V3.73661C12.0196 3.49275 11.9466 3.319 11.8007 3.21536C11.6548 3.11172 11.3995 3.0599 11.0347 3.0599L9.78726 3.09648C9.15988 3.09648 8.68569 3.18793 8.3647 3.37082C9.00668 3.62687 9.32767 4.04143 9.32767 4.6145V7.83344C9.29849 8.13826 9.15258 8.39126 8.88996 8.59245C8.62733 8.79363 8.33552 8.89422 8.01454 8.89422C7.57683 8.89422 7.24125 8.71742 7.0078 8.36383C5.86975 6.92506 5.02351 5.55945 4.46908 4.267L4.27211 3.79148L1.36134 3.77319C1.17166 3.77319 1.06588 3.78233 1.044 3.80062C1.02211 3.81891 1.01117 3.87073 1.01117 3.95608C1.01117 4.06582 1.02576 4.18165 1.05494 4.30358L1.51454 5.32779C2.74013 7.97366 4.07149 10.0586 5.50864 11.5828C6.94579 13.1069 8.35741 13.8689 9.74349 13.8689H11.932C12.0196 13.8689 12.0852 13.8476 12.129 13.8049C12.1728 13.7623 12.2093 13.6799 12.2384 13.558L12.2822 13.3751L12.698 11.7657C12.8148 11.5462 12.9169 11.3999 13.0044 11.3267C13.1649 11.1926 13.3546 11.1255 13.5735 11.1255C13.9236 11.1255 14.2811 11.3023 14.6458 11.6559L16.5061 13.6312C16.6228 13.7897 16.7469 13.8689 16.8782 13.8689H20.4893C20.927 13.8689 21.1459 13.7775 21.1459 13.5946C21.1459 13.5336 21.124 13.4727 21.0802 13.4117L17.9068 10.1013C17.6588 9.84527 17.5347 9.57093 17.5347 9.2783C17.5347 8.98567 17.6515 8.70523 17.8849 8.43699C18.0746 8.19313 18.443 7.78771 18.9901 7.22074C19.5373 6.65377 20.0151 6.12338 20.4236 5.62956C20.8322 5.13575 21.1021 4.68766 21.2334 4.28529L21.299 4.04753C21.2845 4.02314 21.2772 3.98352 21.2772 3.92865C21.2772 3.87378 21.2699 3.82806 21.2553 3.79148H17.8193C17.6004 3.86464 17.4253 3.97437 17.294 4.12069L17.1627 4.46819C16.7979 5.3095 15.8423 6.60805 14.2957 8.36383C13.9893 8.60769 13.6318 8.72962 13.2233 8.72962Z"
      fill="#666666" />
  </g>
</svg>
